<svg xmlns="http://www.w3.org/2000/svg" viewBox="0 0 64 64">
  <defs>
    <linearGradient id="bg" x1="0" y1="0" x2="1" y2="1">
      <stop offset="0%" stop-color="#1b6ec2"/>
      <stop offset="100%" stop-color="#0f4c8a"/>
    </linearGradient>
    <linearGradient id="check" x1="0" y1="0" x2="1" y2="1">
      <stop offset="0%" stop-color="#4ade80"/>
      <stop offset="100%" stop-color="#22c55e"/>
    </linearGradient>
  </defs>

  <!-- Background -->
  <rect width="64" height="64" rx="14" fill="url(#bg)"/>

  <!-- Shadow under page -->
  <path d="M20 15 L40 15 L48 23 L48 54 L20 54 Z" fill="black" opacity="0.15"/>

  <!-- Page -->
  <path d="M18 12 L38 12 L46 20 L46 52 L18 52 Z" fill="white"/>

  <!-- Page fold -->
  <path d="M38 12 L38 20 L46 20 Z" fill="#d4e6f7"/>

  <!-- Text lines -->
  <line x1="23" y1="27" x2="36" y2="27" stroke="#c0d6ec" stroke-width="2" stroke-linecap="round"/>
  <line x1="23" y1="33" x2="41" y2="33" stroke="#c0d6ec" stroke-width="2" stroke-linecap="round"/>
  <line x1="23" y1="39" x2="33" y2="39" stroke="#c0d6ec" stroke-width="2" stroke-linecap="round"/>

  <!-- Checkmark circle badge -->
  <circle cx="46" cy="44" r="13" fill="url(#check)"/>
  <circle cx="46" cy="44" r="11.5" fill="url(#check)" stroke="white" stroke-width="1.5"/>

  <!-- Checkmark -->
  <polyline points="39,44 44,49 54,37" fill="none" stroke="white" stroke-width="3.5"
            stroke-linecap="round" stroke-linejoin="round"/>
</svg>
